<svg xmlns="http://www.w3.org/2000/svg" width="240" height="240" viewBox="0 0 240 240" version="1.1"><path d="" stroke="none" fill="#242c34" fill-rule="evenodd"/><path d="M 107.500 7.689 C 71.881 12.305, 41.874 30.978, 22.882 60.346 C 11.028 78.676, 5.985 95.483, 5.280 119 C 4.886 132.184, 5.138 136.069, 6.968 145 C 14.460 181.551, 37.917 211.376, 71.580 227.150 C 82.132 232.095, 87.222 233.014, 90.022 230.480 C 91.789 228.881, 92 227.373, 92 216.326 L 92 203.962 89.331 204.632 C 84.642 205.809, 72.654 205.538, 67.856 204.146 C 61.062 202.176, 56.587 197.934, 52 189.116 C 48.066 181.556, 44.106 176.680, 38.438 172.420 C 35.013 169.846, 35.913 168, 40.591 168 C 46.066 168, 50.239 170.309, 55.047 175.997 C 67.405 190.620, 71.069 192.777, 81.703 191.687 C 89.651 190.873, 91.921 189.308, 93.942 183.248 C 94.906 180.359, 96.510 177.094, 97.508 175.992 C 98.505 174.889, 99.123 173.790, 98.882 173.548 C 98.640 173.307, 94.858 172.368, 90.478 171.464 C 63.696 165.932, 50.924 152.178, 47.970 125.687 C 46.311 110.810, 49.360 97.618, 56.374 89.318 C 58.921 86.305, 59.002 85.892, 57.903 81.528 C 56.625 76.454, 57.173 64.715, 58.967 58.750 C 59.853 55.802, 60.596 55, 62.442 55 C 66.711 55, 77.395 58.889, 84.376 62.984 L 91.251 67.017 99.876 65.359 C 111.132 63.195, 130.907 63.231, 141.259 65.434 L 149.019 67.085 155.249 63.433 C 163.044 58.865, 169.296 56.378, 175.220 55.490 C 180.763 54.659, 181.306 55.350, 183.071 65.484 C 183.998 70.808, 183.993 73.833, 183.048 79.121 C 181.871 85.705, 181.910 86.017, 184.299 89.208 C 190.428 97.394, 192.979 105.862, 192.971 118 C 192.960 135.226, 188.049 148.881, 178.677 157.744 C 170.463 165.513, 160.633 169.769, 144.653 172.476 C 141.103 173.077, 140.925 173.259, 142.348 174.832 C 143.196 175.769, 144.805 178.553, 145.923 181.018 C 147.751 185.047, 147.960 187.573, 147.993 206 C 148.037 230.429, 148.344 231.526, 155.118 231.448 C 158.460 231.410, 162.383 230.058, 170.137 226.270 C 200.969 211.211, 222.941 184.410, 231.706 151.170 C 235.457 136.943, 236.035 114.651, 233.032 100 C 224.602 58.875, 195.828 26.290, 156.224 13.022 C 141.683 8.150, 121.220 5.910, 107.500 7.689" stroke="none" fill="#242c2c" fill-rule="evenodd"/></svg>